<?xml version="1.0" encoding="utf-8"?>
<!-- Generator: Adobe Illustrator 27.0.0, SVG Export Plug-In . SVG Version: 6.00 Build 0)  -->
<svg version="1.1" id="Layer_1" xmlns="http://www.w3.org/2000/svg" xmlns:xlink="http://www.w3.org/1999/xlink" x="0px" y="0px"
	 viewBox="0 0 141 141" style="enable-background:new 0 0 141 141;" xml:space="preserve">
<style type="text/css">
	.st0{fill:none;stroke:#000000;}
	.st1{fill:none;stroke:#000000;stroke-linecap:round;}
</style>
<path stroke-width="4" class="st0" d="M102.1,84.3c0,15.7-14.2,28.4-31.6,28.4S38.8,100,38.8,84.3"/>
<path stroke-width="4" class="st1" d="M102.1,85.7V51.8c0-3.7-3-6.8-6.8-6.8l0,0c-3.7,0-6.8,3-6.8,6.8v17.9"/>
<path stroke-width="4" class="st1" d="M88.5,58.6V42.5c0-3.7-3-6.8-6.8-6.8l0,0c-3.7,0-6.8,3-6.8,6.8v22.9"/>
<path stroke-width="4" class="st1" d="M61.4,60.4V42.5c0-3.7-3-6.8-6.8-6.8l0,0c-3.7,0-6.8,3-6.8,6.8v13.8"/>
<path stroke-width="4" class="st1" d="M38.8,85.3V64c0-3.7,3-6.8,6.8-6.8l0,0c3.7,0,6.8,3,6.8,6.8v12c4.5,1.1,11.7,3.3,11.7,13.7"/>
<path stroke-width="4" class="st1" d="M75,57.1v-22c0-3.7-3-6.8-6.8-6.8l0,0c-3.7,0-6.8,3-6.8,6.8v26.6"/>
</svg>
